<svg id="Ebene_1" data-name="Ebene 1" xmlns="http://www.w3.org/2000/svg" viewBox="0 0 112.52 112.52"><defs><style>.cls-1{fill:#292828;}.cls-2{fill:#fff;}.cls-3{fill:none;stroke:#fff;stroke-miterlimit:10;}</style></defs><circle class="cls-1" cx="56.26" cy="56.26" r="39.63"/><path class="cls-2" d="M41.43,42.11h3.29a1.41,1.41,0,0,1,.92.29,1.74,1.74,0,0,1,.53.72l2.94,7.59H59.28l3.31,1.58,3.55-9.17a1.68,1.68,0,0,1,.53-.7,1.37,1.37,0,0,1,.92-.31h3.29L58.31,73.53H54ZM62.59,52.29l-3.31,1.49h-9l4.93,12.78a24.27,24.27,0,0,1,1,3c.16-.6.31-1.15.47-1.66s.3-.94.45-1.32Z"/><circle class="cls-3" cx="56.26" cy="56.26" r="47.9"/><circle class="cls-3" cx="56.26" cy="56.26" r="55.76"/></svg>