<?xml version="1.0" encoding="UTF-8" standalone="no"?>
<!-- Generator: Adobe Illustrator 19.0.0, SVG Export Plug-In . SVG Version: 6.00 Build 0)  -->

<svg
   xmlns:dc="http://purl.org/dc/elements/1.1/"
   xmlns:cc="http://creativecommons.org/ns#"
   xmlns:rdf="http://www.w3.org/1999/02/22-rdf-syntax-ns#"
   xmlns:svg="http://www.w3.org/2000/svg"
   xmlns="http://www.w3.org/2000/svg"
   xmlns:sodipodi="http://sodipodi.sourceforge.net/DTD/sodipodi-0.dtd"
   xmlns:inkscape="http://www.inkscape.org/namespaces/inkscape"
   version="1.1"
   id="Layer_1"
   x="0px"
   y="0px"
   viewBox="0 0 266.76074 511.94927"
   xml:space="preserve"
   sodipodi:docname="left-chevron.svg"
   inkscape:version="0.92.5 (2060ec1f9f, 2020-04-08)"
   width="266.76074"
   height="511.94928"><metadata
   id="metadata43"><rdf:RDF><cc:Work
       rdf:about=""><dc:format>image/svg+xml</dc:format><dc:type
         rdf:resource="http://purl.org/dc/dcmitype/StillImage" /><dc:title></dc:title></cc:Work></rdf:RDF></metadata><defs
   id="defs41" /><sodipodi:namedview
   pagecolor="#ffffff"
   bordercolor="#666666"
   borderopacity="1"
   objecttolerance="10"
   gridtolerance="10"
   guidetolerance="10"
   inkscape:pageopacity="0"
   inkscape:pageshadow="2"
   inkscape:window-width="1864"
   inkscape:window-height="1016"
   id="namedview39"
   showgrid="false"
   inkscape:zoom="0.46098341"
   inkscape:cx="-385.10676"
   inkscape:cy="255.976"
   inkscape:window-x="56"
   inkscape:window-y="27"
   inkscape:window-maximized="1"
   inkscape:current-layer="Layer_1"
   fit-margin-top="0"
   fit-margin-left="0"
   fit-margin-right="0"
   fit-margin-bottom="0" />
<g
   id="g6"
   style="opacity:0.7;fill:#ffffff;paint-order:stroke fill markers"
   transform="matrix(-1,0,0,1,389.355,-4.6351159e-4)">
	<g
   id="g4"
   style="fill:#ffffff;paint-order:stroke fill markers">
		<path
   d="M 386.235,248.308 140.902,2.975 c -4.267,-4.053 -10.987,-3.947 -15.04,0.213 -3.947,4.16 -3.947,10.667 0,14.827 l 237.76,237.76 -237.76,237.867 c -4.267,4.053 -4.373,10.88 -0.213,15.04 4.053,4.267 10.88,4.373 15.04,0.213 0.107,-0.107 0.213,-0.213 0.213,-0.213 L 386.235,263.349 c 4.16,-4.161 4.16,-10.881 0,-15.041 z"
   id="path2"
   style="fill:#ffffff;paint-order:stroke fill markers"
   inkscape:connector-curvature="0" />
	</g>
</g>
<g
   id="g8"
   transform="translate(-122.59424,-4.6351159e-4)">
</g>
<g
   id="g10"
   transform="translate(-122.59424,-4.6351159e-4)">
</g>
<g
   id="g12"
   transform="translate(-122.59424,-4.6351159e-4)">
</g>
<g
   id="g14"
   transform="translate(-122.59424,-4.6351159e-4)">
</g>
<g
   id="g16"
   transform="translate(-122.59424,-4.6351159e-4)">
</g>
<g
   id="g18"
   transform="translate(-122.59424,-4.6351159e-4)">
</g>
<g
   id="g20"
   transform="translate(-122.59424,-4.6351159e-4)">
</g>
<g
   id="g22"
   transform="translate(-122.59424,-4.6351159e-4)">
</g>
<g
   id="g24"
   transform="translate(-122.59424,-4.6351159e-4)">
</g>
<g
   id="g26"
   transform="translate(-122.59424,-4.6351159e-4)">
</g>
<g
   id="g28"
   transform="translate(-122.59424,-4.6351159e-4)">
</g>
<g
   id="g30"
   transform="translate(-122.59424,-4.6351159e-4)">
</g>
<g
   id="g32"
   transform="translate(-122.59424,-4.6351159e-4)">
</g>
<g
   id="g34"
   transform="translate(-122.59424,-4.6351159e-4)">
</g>
<g
   id="g36"
   transform="translate(-122.59424,-4.6351159e-4)">
</g>
</svg>